<?xml version="1.0" encoding="UTF-8"?>
<svg version="1.1" xmlns="http://www.w3.org/2000/svg" width="1024" height="1024">
<path d="M0 0 C0 0.66 0 1.32 0 2 C1.10214844 2.37318359 1.10214844 2.37318359 2.2265625 2.75390625 C15.72411603 8.81830002 23.06767938 26.62376516 28.14697266 39.62939453 C32.27722425 51.10756941 33.42279219 63.23307599 34.5 75.3125 C34.67088135 77.05744751 34.67088135 77.05744751 34.84521484 78.83764648 C35.52890416 88.02044028 35.52890416 88.02044028 33.15625 91.73046875 C30.66827325 94.34915443 29.90271062 94.95032638 26.32548523 95.14717102 C25.19028946 95.15701523 24.05509369 95.16685944 22.88549805 95.17700195 C21.60043869 95.18983719 20.31537933 95.20267242 18.99137878 95.21589661 C17.58149602 95.22406418 16.1716089 95.23150788 14.76171875 95.23828125 C14.0526771 95.24235678 13.34363544 95.2464323 12.61310768 95.25063133 C8.85966915 95.27149266 5.10626718 95.28579363 1.3527832 95.29516602 C-2.52111216 95.30622617 -6.39443241 95.34062044 -10.26812458 95.38033772 C-13.24931392 95.40650477 -16.23036631 95.41485791 -19.21166039 95.41844749 C-20.63939482 95.4233139 -22.06712311 95.43492961 -23.49474525 95.45348549 C-25.49546058 95.47787217 -27.49645562 95.47449259 -29.49731445 95.4699707 C-30.634897 95.47583694 -31.77247955 95.48170319 -32.9445343 95.48774719 C-36.69166975 94.88958803 -38.34757148 93.67126055 -41 91 C-41.8203125 87.96875 -41.8203125 87.96875 -42.125 84.5 C-43.05281092 76.10593702 -44.49236153 67.74659926 -48 60 C-49.69712207 58.69140351 -49.69712207 58.69140351 -52 58 C-53.010625 57.608125 -54.02125 57.21625 -55.0625 56.8125 C-62.932085 54.72739628 -70.65902964 56.56824728 -77.6484375 60.41796875 C-93.00479878 70.74907559 -100.13648177 89.59501097 -107 106 C-107.31114746 106.7425 -107.62229492 107.485 -107.94287109 108.25 C-120.5855041 138.98735922 -130.00828671 181.93006804 -117.1875 214.0625 C-114.11323992 220.08436525 -110.92996532 224.66794503 -104.375 227 C-94.90522268 229.28924046 -85.51448513 227.54961601 -77 223 C-71.71834276 219.75226602 -71.71834276 219.75226602 -68 215 C-67.34 215 -66.68 215 -66 215 C-65.72929687 214.43539062 -65.45859375 213.87078125 -65.1796875 213.2890625 C-63.94549309 210.89423493 -62.5586866 208.65552739 -61.125 206.375 C-57.23672562 199.93890769 -54.32706378 193.42367361 -53 186 C-53.87736816 186.02356567 -53.87736816 186.02356567 -54.77246094 186.04760742 C-57.43154164 186.11010267 -60.09046764 186.14903569 -62.75 186.1875 C-63.67039063 186.21263672 -64.59078125 186.23777344 -65.5390625 186.26367188 C-66.42851562 186.27333984 -67.31796875 186.28300781 -68.234375 186.29296875 C-69.45979004 186.31653442 -69.45979004 186.31653442 -70.70996094 186.34057617 C-73.60461922 185.91008062 -74.91994612 185.04120395 -77 183 C-78.49958081 178.68951252 -77.3037073 175.00972123 -76.234375 170.71875 C-75.9432785 169.50475525 -75.9432785 169.50475525 -75.64630127 168.26623535 C-75.02282453 165.67531683 -74.38657164 163.08772877 -73.75 160.5 C-73.33640482 158.7892641 -72.9236358 157.07832824 -72.51171875 155.3671875 C-71.71603838 152.06786182 -70.91016813 148.77129889 -70.09570312 145.4765625 C-69.41671965 142.72567448 -68.7668574 139.97438404 -68.13867188 137.2109375 C-67.89181641 136.14101563 -67.64496094 135.07109375 -67.390625 133.96875 C-67.18985352 133.06576172 -66.98908203 132.16277344 -66.78222656 131.23242188 C-65.64645986 127.99102027 -64.03201707 126.51600854 -61 125 C-59.52674518 124.89954442 -58.04907343 124.86060514 -56.57241821 124.85282898 C-55.64147842 124.84567368 -54.71053864 124.83851837 -53.75138855 124.83114624 C-52.7269313 124.82845734 -51.70247406 124.82576843 -50.64697266 124.82299805 C-49.03220284 124.81314125 -49.03220284 124.81314125 -47.3848114 124.80308533 C-43.81122779 124.78332325 -40.23768622 124.77168439 -36.6640625 124.76171875 C-35.44627483 124.75764322 -34.22848717 124.7535677 -32.97379684 124.74936867 C-26.53071002 124.72849739 -20.08764458 124.71419917 -13.64453125 124.70483398 C-6.97709599 124.69476395 -0.31003934 124.65934285 6.35729027 124.61966228 C11.47358844 124.59356803 16.58980645 124.58514863 21.70616531 124.58155251 C24.16462072 124.57666941 26.62307215 124.56500687 29.08146286 124.54651451 C32.51730784 124.52227238 35.95228001 124.52306089 39.38818359 124.5300293 C40.91879677 124.51081421 40.91879677 124.51081421 42.48033142 124.49121094 C49.30797522 124.54183121 49.30797522 124.54183121 52.67106628 126.76843262 C54.18971912 129.31857948 54.37091259 130.28548366 53.87475586 133.17504883 C53.74656464 133.9643277 53.61837341 134.75360657 53.48629761 135.56680298 C53.3258194 136.369758 53.16534119 137.17271301 53 138 C52.85458771 138.74631683 52.70917542 139.49263367 52.55935669 140.26156616 C52.0760354 142.5834842 51.54728491 144.89064517 51.00390625 147.19921875 C50.81030014 148.03789993 50.61669403 148.87658112 50.41722107 149.74067688 C50.01032657 151.49833952 49.60095925 153.25543142 49.18920898 155.01196289 C48.56202571 157.68952484 47.94350499 160.36897991 47.32617188 163.04882812 C46.9275911 164.76574296 46.52851946 166.48254393 46.12890625 168.19921875 C45.94550186 168.99309494 45.76209747 169.78697113 45.57313538 170.60490417 C44.58088274 174.82126432 43.44719057 178.9102908 42 183 C41.34 183 40.68 183 40 183 C40 183.66 40 184.32 40 185 C36.15158652 186.18031238 32.241721 186.33235351 28.25 186.5625 C27.55261719 186.60568359 26.85523438 186.64886719 26.13671875 186.69335938 C24.42468078 186.79889596 22.71236439 186.8998991 21 187 C20.81937012 187.5576001 20.63874023 188.1152002 20.45263672 188.68969727 C11.56851481 216.00710938 1.16292313 243.74945031 -19 265 C-19.66 265 -20.32 265 -21 265 C-21.22558594 265.55945313 -21.45117188 266.11890625 -21.68359375 266.6953125 C-29.98220441 281.22403739 -50.32002945 289.70852925 -65.46484375 294.125 C-91.72051911 300.6236423 -124.39911984 303.08659626 -148.6171875 288.609375 C-170.02269974 274.15188148 -183.62113334 255.90835698 -191 231 C-191.556875 229.2675 -191.556875 229.2675 -192.125 227.5 C-201.78767823 188.84928707 -196.99540189 140.16501544 -182.79223633 103.12060547 C-181.97464456 100.93213023 -181.22631913 98.7295117 -180.4921875 96.51171875 C-172.28184225 71.85260909 -160.46586163 48.47988348 -143 29 C-142.28714844 28.15695312 -141.57429688 27.31390625 -140.83984375 26.4453125 C-135.45249161 20.1933236 -129.50038065 15.06241766 -123 10 C-122.23558594 9.35804688 -121.47117187 8.71609375 -120.68359375 8.0546875 C-87.13587591 -17.63104698 -35.93697918 -23.95798612 0 0 Z " fill="#FEFCE2" transform="translate(277,373)"/>
<path d="M0 0 C1.42961311 -0.00569504 1.42961311 -0.00569504 2.8881073 -0.01150513 C6.04414587 -0.01892565 9.19926761 0.00249167 12.35522461 0.02490234 C14.54332877 0.02728577 16.731435 0.0281923 18.91954041 0.02767944 C23.5070373 0.03080994 28.09422221 0.04739586 32.68164062 0.07421875 C38.57231318 0.10821886 44.46264296 0.11584693 50.35340214 0.11432838 C54.87173252 0.11487128 59.38998744 0.12582522 63.90829277 0.14033127 C66.08089056 0.14671094 68.25349693 0.15064088 70.42610359 0.15211868 C73.45739548 0.15643814 76.48831821 0.17390932 79.51953125 0.1953125 C80.42399994 0.19440613 81.32846863 0.19349976 82.26034546 0.19256592 C88.46611393 0.25688542 88.46611393 0.25688542 90.69506836 2.48583984 C90.94691736 4.64156955 90.94691736 4.64156955 90.94954395 7.37753201 C90.95537615 8.41771589 90.96120834 9.45789977 90.96721727 10.52960438 C90.96343794 11.68123493 90.95965862 12.83286548 90.95576477 14.01939392 C90.95959032 15.23588468 90.96341586 16.45237543 90.96735734 17.70572954 C90.97592026 21.09316192 90.9754425 24.4803784 90.97117674 27.86780488 C90.96871884 31.5168164 90.97771198 35.16580195 90.98521423 38.81480408 C90.99798946 45.96774341 90.99975142 53.12064525 90.99741397 60.27359407 C90.99563379 66.08540591 90.99737399 71.89720633 91.00163841 77.7090168 C91.0022336 78.5349373 91.00282879 79.3608578 91.00344202 80.2118062 C91.00465372 81.88945194 91.00586785 83.56709768 91.00708439 85.24474341 C91.01797082 100.99185687 91.01579223 116.73894894 91.00969955 132.48606361 C91.00452944 146.90429073 91.01578634 161.3224503 91.03479777 175.74066406 C91.05415157 190.53148058 91.06243649 205.32226511 91.05867451 220.11309439 C91.05675872 228.42255059 91.05928667 236.73194929 91.07338905 245.04139519 C91.08527259 252.11528065 91.08674195 259.18907322 91.07459889 266.26295989 C91.06868877 269.87445606 91.06766913 273.48578208 91.07960129 277.09726715 C91.09236809 281.00669757 91.08204635 284.91586697 91.06929016 288.82530212 C91.07666445 289.97470195 91.08403873 291.12410178 91.09163648 292.30833191 C91.08082666 293.87251935 91.08082666 293.87251935 91.06979847 295.46830654 C91.06985349 296.3713365 91.0699085 297.27436646 91.06996518 298.20476097 C90.61645582 300.96416185 89.93771612 301.8547386 87.69506836 303.48583984 C84.69702148 303.86679077 84.69702148 303.86679077 80.97631836 303.87402344 C79.95876465 303.88190887 79.95876465 303.88190887 78.9206543 303.88995361 C76.67855801 303.9031562 74.43717185 303.89441522 72.19506836 303.88427734 C70.63712426 303.88629802 69.07918109 303.88920941 67.52124023 303.89297485 C64.25617466 303.89739853 60.99135531 303.89096593 57.72631836 303.87695312 C53.53955487 303.85986097 49.35336829 303.86970195 45.16662598 303.88767052 C41.94958137 303.89850731 38.73267371 303.89506255 35.515625 303.88728714 C33.97184176 303.88528483 32.42804611 303.88774551 30.88427734 303.8947258 C28.72712232 303.90233885 26.57090358 303.89073957 24.41381836 303.87402344 C23.18598633 303.87163666 21.9581543 303.86924988 20.69311523 303.86679077 C17.69506836 303.48583984 17.69506836 303.48583984 15.79742432 302.08372498 C14.38072841 300.03019834 14.33528032 298.7936962 14.36694336 296.31005859 C14.37209961 295.48054688 14.37725586 294.65103516 14.38256836 293.79638672 C14.40319336 292.93078125 14.42381836 292.06517578 14.44506836 291.17333984 C14.45022461 290.35027344 14.45538086 289.52720703 14.46069336 288.67919922 C14.55167577 281.23570102 15.16279582 273.93765545 15.69506836 266.48583984 C-7.07493164 266.48583984 -29.84493164 266.48583984 -53.30493164 266.48583984 C-54.29493164 269.45583984 -55.28493164 272.42583984 -56.30493164 275.48583984 C-58.04773069 280.00320372 -59.92807702 284.46020943 -61.80493164 288.92333984 C-62.2909082 290.10605469 -62.77688477 291.28876953 -63.27758789 292.50732422 C-63.75067383 293.63332031 -64.22375977 294.75931641 -64.71118164 295.91943359 C-65.1372168 296.94093506 -65.56325195 297.96243652 -66.00219727 299.01489258 C-67.30493164 301.48583984 -67.30493164 301.48583984 -70.30493164 303.48583984 C-73.34094238 303.74653625 -73.34094238 303.74653625 -77.11547852 303.76049805 C-78.14766258 303.76816444 -78.14766258 303.76816444 -79.20069885 303.77598572 C-81.47511492 303.78988509 -83.74922815 303.78892495 -86.02368164 303.78662109 C-87.60404575 303.79050744 -89.18440881 303.79484198 -90.76477051 303.79960632 C-94.07685737 303.80706897 -97.38883763 303.80677667 -100.70092773 303.80151367 C-104.94819518 303.79571459 -109.19502718 303.81266009 -113.4422226 303.83585835 C-116.70557207 303.85057862 -119.9688162 303.85146981 -123.23219299 303.84834862 C-124.79831302 303.84886255 -126.36443884 303.85411377 -127.93052673 303.86416054 C-130.11876886 303.87647698 -132.30615665 303.8697634 -134.49438477 303.8581543 C-135.73998169 303.85878372 -136.98557861 303.85941315 -138.2689209 303.86006165 C-141.30493164 303.48583984 -141.30493164 303.48583984 -143.23570251 302.19114685 C-144.80658543 299.68575528 -144.3379783 297.5049261 -143.85916138 294.68493652 C-142.90507701 290.89927939 -141.31288714 287.5038895 -139.61352539 284.00146484 C-139.23696304 283.20117859 -138.8604007 282.40089233 -138.47242737 281.57635498 C-137.66171292 279.85592409 -136.84604079 278.13782221 -136.02587891 276.421875 C-133.82383583 271.81337625 -131.65883294 267.18747034 -129.48852539 262.56396484 C-128.826194 261.15685242 -128.826194 261.15685242 -128.15048218 259.72131348 C-124.06939115 251.03349285 -120.16747665 242.27245586 -116.30493164 233.48583984 C-110.55649542 220.43671092 -104.63544485 207.47528413 -98.61743164 194.54833984 C-92.67824356 181.79045511 -86.80429408 169.0116814 -81.07885742 156.15625 C-76.94514906 146.88312513 -72.72738811 137.65055548 -68.49243164 128.42333984 C-63.06997481 116.60756922 -57.74466075 104.75317924 -52.49243164 92.86083984 C-45.90254261 77.94230802 -39.08644509 63.13572754 -32.19628906 48.35375977 C-28.51710204 40.45457936 -24.85896074 32.54908477 -21.31665039 24.58740234 C-21.01221512 23.90348923 -20.70777985 23.21957611 -20.39411926 22.51493835 C-18.99551743 19.36770789 -17.60525509 16.21721383 -16.22412109 13.06225586 C-15.50615356 11.43694946 -15.50615356 11.43694946 -14.77368164 9.77880859 C-14.36569336 8.84576904 -13.95770508 7.91272949 -13.53735352 6.95141602 C-13.1306543 6.13777588 -12.72395508 5.32413574 -12.30493164 4.48583984 C-11.97642715 3.78500778 -11.64792267 3.08417572 -11.3094635 2.36210632 C-8.02179656 -0.71519038 -4.33702192 -0.05401313 0 0 Z M21.69506836 81.48583984 C21.29904419 82.47982788 21.29904419 82.47982788 20.89501953 83.49389648 C14.50449279 99.52347896 8.06962761 115.53488472 1.60137939 131.53326416 C0.38048775 134.55348683 -0.83945546 137.57409141 -2.05932617 140.59472656 C-5.968315 150.26911016 -9.89408094 159.93605181 -13.85961914 169.58740234 C-14.90581929 172.14084428 -15.95147782 174.69450722 -16.99691772 177.2482605 C-17.97188153 179.62327963 -18.95434596 181.99510293 -19.93701172 184.36694336 C-20.52228075 185.79573896 -21.10718303 187.22468487 -21.69165039 188.65380859 C-22.09327896 189.6128862 -22.09327896 189.6128862 -22.50302124 190.59133911 C-23.8281378 193.85595203 -24.30493164 195.88038821 -24.30493164 199.48583984 C-18.64510867 199.65324306 -12.98514946 199.8138243 -7.32495117 199.96801758 C-5.39846557 200.02146789 -3.47203122 200.07679956 -1.5456543 200.1340332 C1.21936996 200.21585971 3.9845065 200.29097276 6.74975586 200.36474609 C7.61438446 200.39178116 8.47901306 200.41881622 9.36984253 200.44667053 C13.66506933 200.69579189 13.66506933 200.69579189 17.69506836 199.48583984 C18.5998297 196.77155582 18.87504458 194.92261338 19.00514221 192.11004639 C19.04858765 191.21572403 19.09203308 190.32140167 19.13679504 189.39997864 C19.17995346 188.42123276 19.22311188 187.44248688 19.26757812 186.43408203 C19.34094894 184.88484291 19.34094894 184.88484291 19.415802 183.30430603 C19.5768581 179.88062245 19.73174675 176.45668981 19.88647461 173.03271484 C19.99681912 170.65479028 20.10749558 168.2768811 20.2184906 165.89898682 C20.45052934 160.90901178 20.67973415 155.91891751 20.90673828 150.92871094 C21.19748582 144.53845772 21.49335662 138.14845544 21.79112339 131.75852585 C22.01985573 126.84462843 22.24679342 121.93064954 22.47309685 117.01663971 C22.58161024 114.66115023 22.69046009 112.30567623 22.79965401 109.9502182 C22.95209717 106.65194484 23.10235458 103.35357924 23.25195312 100.05517578 C23.29713577 99.08452682 23.34231842 98.11387787 23.38887024 97.11381531 C23.60788937 92.23157272 23.74273583 87.3729765 23.69506836 82.48583984 C23.03506836 82.15583984 22.37506836 81.82583984 21.69506836 81.48583984 Z " fill="#FEFCE1" transform="translate(608.304931640625,363.51416015625)"/>
<path d="M0 0 C1.05532928 -0.00281982 2.11065857 -0.00563965 3.19796753 -0.00854492 C6.61779256 -0.01281026 10.03724392 -0.0002517 13.45703125 0.015625 C15.19567947 0.02027771 15.19567947 0.02027771 16.9694519 0.02502441 C54.50109772 0.14364591 93.23178456 0.61220493 122.09765625 27.96875 C140.74147512 47.68559442 144.89901049 74.68238465 144.453125 100.78125 C143.3247336 141.06692559 127.90824397 178.55586735 98.80224609 206.68359375 C71.7935982 231.96602521 34.86682 243.56646867 -1.6484375 243.36328125 C-2.6316951 243.3618663 -3.6149527 243.36045135 -4.62800598 243.35899353 C-7.72469308 243.35345963 -10.82130403 243.34092014 -13.91796875 243.328125 C-16.03580624 243.32310144 -18.15364487 243.31854004 -20.27148438 243.31445312 C-25.42450787 243.30351198 -30.57747546 243.28629421 -35.73046875 243.265625 C-32.94800483 246.29268784 -30.40695189 248.1553024 -26.703125 249.921875 C-25.74599609 250.38722656 -24.78886719 250.85257813 -23.80273438 251.33203125 C-22.80951172 251.80511719 -21.81628906 252.27820313 -20.79296875 252.765625 C-5.74352215 259.96190761 -5.74352215 259.96190761 -4.0168457 263.88842773 C-3.58545849 267.46934613 -4.47178063 270.73677612 -5.27734375 274.20703125 C-5.44921204 274.97111801 -5.62108032 275.73520477 -5.79815674 276.52244568 C-6.16362896 278.1347341 -6.53375411 279.74597391 -6.90820312 281.35620117 C-7.47849965 283.81961938 -8.02720828 286.28717948 -8.57421875 288.75585938 C-8.93229827 290.3232132 -9.29163139 291.89028126 -9.65234375 293.45703125 C-9.8963089 294.56335655 -9.8963089 294.56335655 -10.14520264 295.69203186 C-11.66117733 302.08037467 -11.66117733 302.08037467 -14.73046875 304.265625 C-17.61462402 304.64657593 -17.61462402 304.64657593 -21.17382812 304.65380859 C-21.82293655 304.65906555 -22.47204498 304.66432251 -23.14082336 304.66973877 C-25.28553359 304.68293796 -27.42950103 304.67420172 -29.57421875 304.6640625 C-31.06490217 304.66608328 -32.55558462 304.66899475 -34.04626465 304.67276001 C-37.17009902 304.67718322 -40.29367601 304.67075265 -43.41748047 304.65673828 C-47.42265052 304.63964608 -51.4272175 304.64948732 -55.43236542 304.66745567 C-58.51044259 304.67829376 -61.58837666 304.67484713 -64.66645813 304.6670723 C-66.14325532 304.66507034 -67.62006549 304.66752942 -69.09684753 304.67451096 C-71.16061844 304.68212623 -73.22341136 304.67052194 -75.28710938 304.65380859 C-76.46164673 304.65142181 -77.63618408 304.64903503 -78.84631348 304.64657593 C-81.73046875 304.265625 -81.73046875 304.265625 -83.41786385 303.00968647 C-85.58828228 300.12584599 -84.71359671 297.70391151 -84.25257492 294.27224159 C-83.23504896 288.41268542 -81.91102222 282.62978485 -80.55712891 276.84057617 C-80.2253608 275.40123713 -79.8941404 273.96177176 -79.56341839 272.522192 C-78.66202877 268.60568168 -77.75299437 264.69098115 -76.84263444 260.77654767 C-75.86946834 256.5858031 -74.90356754 252.39338404 -73.93681335 248.20115662 C-72.06488896 240.08879972 -70.1865541 231.9779409 -68.30588514 223.8676073 C-66.13844841 214.51964549 -63.97691084 205.17032318 -61.81598628 195.82085419 C-60.72863944 191.11635322 -59.64109694 186.4118975 -58.55348206 181.7074585 C-58.33790333 180.77497268 -58.1223246 179.84248687 -57.90021318 178.88174391 C-56.37057824 172.2659771 -54.83954325 165.65053517 -53.30796814 159.03521729 C-48.27614715 137.29931079 -43.2646371 115.55890277 -38.28276062 93.81149483 C-37.32104766 89.61369964 -36.35815892 85.41617484 -35.39489746 81.21873474 C-35.2406766 80.54668107 -35.08645574 79.87462741 -34.92756152 79.18220848 C-34.31853855 76.52832266 -33.70948512 73.87444384 -33.10032701 71.22058904 C-31.50633488 64.27604651 -29.9144714 57.33103192 -28.32867432 50.38461304 C-27.00033681 44.56639747 -25.66597521 38.74959751 -24.3268528 32.93385506 C-23.84595147 30.84018254 -23.36733529 28.74598356 -22.89124107 26.65121269 C-22.2490574 23.82675429 -21.59882255 21.0042678 -20.9465332 18.18212891 C-20.76446131 17.3721001 -20.58238941 16.56207129 -20.39480019 15.72749615 C-17.5518383 3.54880752 -17.5518383 3.54880752 -13.71362305 0.84472656 C-9.14014925 -0.04309403 -4.64861037 -0.01821836 0 0 Z M4.26953125 67.265625 C5.63698603 71.36798933 8.28911666 72.18814648 11.9296875 74.05859375 C12.5941539 74.40948563 13.2586203 74.7603775 13.94322205 75.12190247 C16.06819179 76.24140382 18.19989224 77.34734929 20.33203125 78.453125 C21.77324953 79.20940466 23.21401099 79.96655555 24.65429688 80.72460938 C28.18748539 82.5817686 31.72676859 84.42680008 35.26953125 86.265625 C34.64791088 95.58528729 32.55852122 104.47494239 30.453125 113.54296875 C30.07278501 115.20286493 29.69308073 116.86290688 29.3139801 118.52308655 C28.32123069 122.86476887 27.3217916 127.20487966 26.3203125 131.54455566 C24.71265769 138.51372646 23.11290909 145.48470194 21.51768684 152.45672798 C20.96008489 154.8876267 20.39815069 157.31749523 19.83580017 159.74729919 C19.49511624 161.23115576 19.15457784 162.71504574 18.81420898 164.19897461 C18.65681747 164.87378372 18.49942596 165.54859283 18.33726501 166.24385071 C17.70905639 168.99782617 17.26953125 171.42837517 17.26953125 174.265625 C25.08692765 176.17500678 32.64593748 173.79602451 39.62109375 170.06640625 C56.75905879 158.41360111 64.42610439 139.92778864 68.7265625 120.328125 C71.30334513 105.79432944 72.53467588 89.25124412 65.45703125 75.828125 C62.22042338 72.03667007 59.09479061 68.87404479 54.26953125 67.265625 C52.62794675 67.17823602 50.98301503 67.14795879 49.33911133 67.15209961 C47.83789482 67.15221291 47.83789482 67.15221291 46.30635071 67.15232849 C45.2281456 67.15748978 44.14994049 67.16265106 43.0390625 67.16796875 C41.9335051 67.1693837 40.82794769 67.17079865 39.68888855 67.17225647 C36.15324208 67.17785986 32.61765863 67.19041296 29.08203125 67.203125 C26.68684987 67.20813956 24.2916675 67.21270254 21.89648438 67.21679688 C16.02081178 67.22783039 10.14517602 67.24457184 4.26953125 67.265625 Z " fill="#FEFCE2" transform="translate(790.73046875,362.734375)"/>
<path d="M0 0 C1.66675781 -0.00580078 1.66675781 -0.00580078 3.3671875 -0.01171875 C13.65319965 0.00038244 22.83133019 0.70237792 32.625 3.9375 C33.4190625 4.18564453 34.213125 4.43378906 35.03125 4.68945312 C53.2924561 10.5719564 67.14642421 22.48847186 76.17578125 39.3671875 C82.89268152 52.67537328 85.3624611 66.77983592 85.4375 81.5625 C85.47037109 82.73232422 85.50324219 83.90214844 85.53710938 85.10742188 C85.54419922 86.22568359 85.55128906 87.34394531 85.55859375 88.49609375 C85.57877563 90.0109436 85.57877563 90.0109436 85.59936523 91.55639648 C85 94.125 85 94.125 82.84303284 95.76127625 C79.60353447 97.31517349 77.49102409 97.50510578 73.91210938 97.51318359 C72.70735962 97.52264008 71.50260986 97.53209656 70.26135254 97.5418396 C68.32213928 97.53273056 68.32213928 97.53273056 66.34375 97.5234375 C64.99523766 97.52546025 63.64672639 97.52837337 62.29821777 97.53213501 C59.47718858 97.53654895 56.6564451 97.53015772 53.83544922 97.51611328 C50.22734585 97.49902146 46.61991202 97.50886771 43.01183319 97.52683067 C40.22876989 97.53769396 37.44586418 97.53421061 34.66279602 97.5264473 C32.68807539 97.52348524 30.71334853 97.53256386 28.73864746 97.5418396 C26.93152283 97.52765488 26.93152283 97.52765488 25.08789062 97.51318359 C24.03041626 97.51079681 22.97294189 97.50841003 21.88342285 97.50595093 C18.55276826 97.06591281 16.67558227 96.13280122 14 94.125 C11.71671713 89.06763515 11.32266977 83.70700614 10.66015625 78.24609375 C9.96850793 74.97611146 8.79606518 72.90963511 7 70.125 C7 69.465 7 68.805 7 68.125 C-1.07178805 65.14231423 -7.1742068 64.30394596 -15.3125 67.375 C-19.80016193 70.29719847 -21.95961807 73.23225676 -23.3125 78.375 C-24.1996345 83.16711046 -23.95182037 87.36589817 -23 92.125 C-22.84789062 92.90617187 -22.69578125 93.68734375 -22.5390625 94.4921875 C-19.72530492 105.92992935 -11.8789474 114.66043117 -3.90625 122.9453125 C-2 125.125 -2 125.125 -2 127.125 C-1.34 127.125 -0.68 127.125 0 127.125 C0 127.785 0 128.445 0 129.125 C1.32 129.785 2.64 130.445 4 131.125 C4 131.785 4 132.445 4 133.125 C4.53109375 133.33125 5.0621875 133.5375 5.609375 133.75 C8.98635937 135.6923178 11.53958403 138.36856478 14.25 141.125 C14.8277417 141.71023438 15.4054834 142.29546875 16.00073242 142.8984375 C37.25685249 164.68677823 49.415936 190.77873104 49.375 221.25 C49.37445618 221.93408936 49.37391235 222.61817871 49.37335205 223.32299805 C49.33392941 234.11786204 48.51504397 243.89841896 45 254.125 C44.79632813 254.75712402 44.59265625 255.38924805 44.3828125 256.04052734 C37.26026156 277.87532277 20.86751063 294.66310172 0.60498047 305.0378418 C-24.12574239 317.03214473 -56.4184041 317.48585901 -82.421875 309.44140625 C-93.85795749 305.23402656 -103.49244055 300.00111798 -112 291.125 C-112.69351562 290.46242188 -113.38703125 289.79984375 -114.1015625 289.1171875 C-129.28279666 273.70149412 -132.96119346 251.91991045 -133.1875 231.1875 C-133.20731934 229.94286987 -133.20731934 229.94286987 -133.22753906 228.6730957 C-133.22850586 227.88507568 -133.22947266 227.09705566 -133.23046875 226.28515625 C-133.23457764 225.58011963 -133.23868652 224.87508301 -133.24291992 224.14868164 C-132.95582881 221.75702516 -132.26002162 220.17000761 -131 218.125 C-128.17738056 216.71369028 -125.81096989 216.9899354 -122.65429688 216.97973633 C-121.67844383 216.97469841 -121.67844383 216.97469841 -120.68287659 216.96955872 C-118.52814841 216.96004424 -116.37349788 216.9581055 -114.21875 216.95703125 C-112.72424283 216.95381949 -111.22973599 216.95045548 -109.73522949 216.94694519 C-106.60131094 216.94095302 -103.46741997 216.93910543 -100.33349609 216.93969727 C-96.31151948 216.939799 -92.28971895 216.92613538 -88.26778412 216.90892506 C-85.18120506 216.89782544 -82.09466888 216.89577741 -79.0080719 216.89630699 C-77.52486055 216.89512423 -76.04164819 216.89068595 -74.55845642 216.88297462 C-72.48741178 216.87321369 -70.41675355 216.8760368 -68.34570312 216.88208008 C-67.16592896 216.88065506 -65.98615479 216.87923004 -64.77062988 216.87776184 C-62 217.125 -62 217.125 -60 219.125 C-58.83726406 222.47730362 -58.80026473 225.85301357 -58.625 229.375 C-58.23950356 234.90873921 -57.24319521 239.07781077 -55 244.125 C-54.67 245.115 -54.34 246.105 -54 247.125 C-47.745325 249.5017765 -42.05873551 250.23916523 -35.8125 247.625 C-31.34431477 245.20040336 -29.62234476 241.81788428 -28 237.125 C-24.99005512 226.80230312 -28.06255596 216.43338634 -32.84814453 207.14916992 C-34.71343952 203.87126388 -36.92537377 200.97545902 -39.3125 198.0625 C-39.85374512 197.39621582 -40.39499023 196.72993164 -40.95263672 196.04345703 C-46.4470974 189.46938302 -52.52417769 183.50065101 -58.625 177.5 C-81.80533893 154.6774123 -99.77361592 128.6509934 -100.2421875 94.96948242 C-100.30058544 73.23997518 -96.13597233 53.32477749 -82 36.125 C-81.35804688 35.32191406 -80.71609375 34.51882813 -80.0546875 33.69140625 C-67.10908762 18.38120418 -50.17297647 8.56597981 -31 3.125 C-30.28585937 2.91230469 -29.57171875 2.69960938 -28.8359375 2.48046875 C-19.42811234 -0.12448682 -9.68487114 -0.03370605 0 0 Z " fill="#FEFCE1" transform="translate(431,357.875)"/>
</svg>
