<?xml version="1.0" encoding="UTF-8"?>
<svg version="1.1" xmlns="http://www.w3.org/2000/svg" width="1551" height="603">
<path d="M0 0 C5.8491903 -0.05004902 11.69825148 -0.08602145 17.54760742 -0.10986328 C19.53070247 -0.11981971 21.51378325 -0.13338972 23.49682617 -0.15087891 C50.92888859 -0.38646621 75.13619349 3.59904477 95.390625 23.421875 C96.25171875 24.27265625 97.1128125 25.1234375 98 26 C98.98226562 26.87398437 98.98226562 26.87398437 99.984375 27.765625 C107.79078448 34.85585012 113.46009739 44.48623726 116.8984375 54.3828125 C117.14963852 55.10327759 117.40083954 55.82374268 117.65965271 56.56604004 C121.26447803 67.32480486 123.57480469 78.44344955 126.0625 89.5 C126.62596528 91.96928254 127.19035681 94.43835388 127.75561523 96.90722656 C129.2237121 103.32954073 130.68028334 109.75441216 132.13427734 116.17993164 C133.5197613 122.29348706 134.9160798 128.40455992 136.3125 134.515625 C137.87242675 141.34367578 139.43211123 148.17176705 140.98266602 155.00195312 C144.24483126 169.36380293 147.54903521 183.71558264 150.86617088 198.06482315 C157.12870778 225.15838057 163.30751286 252.27045908 169.45917892 279.38937759 C171.90454116 290.16755443 174.35282706 300.94506787 176.80078125 311.72265625 C177.06784945 312.89859785 177.33491764 314.07453945 177.61007881 315.28611565 C183.0271505 339.13708202 188.46948558 362.98222809 193.92813396 386.82371044 C194.39300852 388.85414531 194.85780143 390.88459886 195.32258606 392.91505432 C195.87215318 395.3154648 196.42200035 397.71581119 196.97221375 400.11607361 C198.33635425 406.07276622 199.68176281 412.03297494 201 418 C204.73437325 404.84953327 207.57630516 391.52637049 210.4375 378.1640625 C210.96325736 375.7212421 211.48930569 373.2784843 212.015625 370.83578491 C213.26126941 365.05052982 214.50347839 359.26454518 215.74413872 353.47821939 C216.97433332 347.74189847 218.20902167 342.00655021 219.44426441 336.27131462 C226.39817272 303.9806353 233.24571294 271.66838444 240.03550053 239.34283829 C243.09865135 224.76399276 246.19240863 210.19176193 249.3125 195.625 C249.53634558 194.57942995 249.53634558 194.57942995 249.76471329 193.51273727 C254.64182038 170.73762602 259.61967898 147.98572271 264.69802475 125.25463104 C265.18131768 123.09018772 265.66359396 120.92552 266.1456604 118.76080322 C273.33840742 86.48574552 280.12785042 58.07417059 304 34 C304.92232422 33.00419922 304.92232422 33.00419922 305.86328125 31.98828125 C324.12765296 12.54556298 350.30612573 1.63747896 376.7578125 0.78515625 C408.91161254 0.11426146 437.81684648 9.19238683 462 31 C492.98937157 60.97405027 498.26652105 102.72066716 506.8704834 143.03226089 C508.15935982 149.06266757 509.4573724 155.09110905 510.75390625 161.11987305 C514.03158609 176.37234362 517.2917555 191.62853255 520.54859352 206.88546371 C521.15625139 209.73193286 521.76406103 212.57836959 522.37186247 215.42480808 C528.00718787 241.81644061 533.63655385 268.20934441 539.25625932 294.60430753 C548.08848721 336.08743374 556.97973021 377.55730373 566 419 C572.78478076 391.72459344 579.07536593 364.34406385 585.29029846 336.93395996 C587.47095928 327.31818632 589.66405559 317.70529367 591.86328125 308.09375 C592.0266523 307.37970694 592.19002335 306.66566387 592.35834503 305.92998314 C593.19270596 302.28340574 594.02720617 298.63686024 594.86175537 294.99032593 C599.94632435 272.77234326 605.01502184 250.55083431 610.05910492 228.32362556 C617.67183676 194.77753416 625.33765341 161.24380218 633.06893921 127.724823 C634.89819991 119.79268934 636.71946521 111.85882019 638.52957153 103.92228699 C639.51822384 99.59395581 640.51387671 95.26725855 641.51159668 90.94100952 C641.95079627 89.02995194 642.38707837 87.11822068 642.81994629 85.20571899 C644.88523938 76.08733159 647.1370878 67.10373052 650.0625 58.21875 C650.41594734 57.14016724 650.41594734 57.14016724 650.77653503 56.03979492 C654.76852013 44.3487663 661.31821143 34.74870023 670 26 C670.86625 25.0925 671.7325 24.185 672.625 23.25 C673.40875 22.5075 674.1925 21.765 675 21 C675.47308594 20.54367188 675.94617188 20.08734375 676.43359375 19.6171875 C696.54670488 1.19222718 721.60917407 -0.35278955 747.4375 -0.125 C749.4407507 -0.11494238 751.44400632 -0.10582149 753.44726562 -0.09765625 C758.29830149 -0.07588101 763.14909449 -0.04150712 768 0 C766.48664803 11.7985918 763.7852232 23.29398886 761.125 34.875 C760.60116076 37.17106951 760.07765501 39.46721513 759.55444336 41.76342773 C757.88181279 49.09452217 756.20021355 56.42353777 754.5164566 63.75208282 C753.98682819 66.0573313 753.4573588 68.36261626 752.92791748 70.66790771 C749.50339232 85.57806789 746.07580621 100.48752452 742.64474106 115.39618111 C736.06969329 143.96634901 729.52274734 172.54284596 723 201.125 C722.77503593 202.11072746 722.55007187 203.09645493 722.31829071 204.11205292 C717.03394714 227.26786104 711.76235601 250.42642059 706.53115845 273.59429932 C701.22113921 297.10260729 695.84090912 320.59487499 690.467659 344.08879089 C666.54848241 448.52116462 666.54848241 448.52116462 643.00152588 553.03785706 C640.57712988 563.90330113 638.13325215 574.76434649 635.6875 585.625 C635.30354181 587.33048359 634.9195897 589.03596855 634.53564453 590.74145508 C633.69069992 594.49436429 632.84546064 598.24720701 632 602 C613.64871407 602.16516157 595.33234084 601.80731359 577 601 C575.95408691 600.95681641 574.90817383 600.91363281 573.83056641 600.86914062 C551.01417947 599.79907728 529.23431509 591.24693461 512 576 C512 575.34 512 574.68 512 574 C511.17628906 573.70609375 511.17628906 573.70609375 510.3359375 573.40625 C507.01111795 571.40468639 504.9469472 568.53962542 502.625 565.5 C502.13894287 564.8714209 501.65288574 564.2428418 501.15209961 563.59521484 C497.35535813 558.61623546 493.98808205 553.50744534 491 548 C490.47019531 547.09507812 490.47019531 547.09507812 489.9296875 546.171875 C483.8675739 535.19324407 481.34733462 521.9521491 478.62998962 509.80233765 C478.42589509 508.88996086 478.22180056 507.97758408 478.01152134 507.03755951 C477.8014693 506.09703987 477.59141726 505.15652023 477.375 504.1875 C477.17355094 503.28615578 476.97210188 502.38481155 476.7645483 501.45615387 C473.4279634 486.51264 470.14783712 471.55761235 466.921875 456.58984375 C466.69044926 455.51687168 466.45902351 454.44389961 466.22058487 453.33841324 C460.07127488 424.81167791 454.08899807 396.24980691 448.10229492 367.68859863 C440.11976839 329.59180184 440.11976839 329.59180184 431.85913658 291.55465508 C427.46094427 271.65702338 423.24361742 251.72168914 419.02947998 231.78439331 C417.65807089 225.29663493 416.28369222 218.80950775 414.90869141 212.32250977 C414.67914135 211.23948798 414.44959129 210.1564662 414.21308517 209.04062557 C413.75212082 206.86581262 413.29114903 204.69100125 412.83016968 202.51619148 C411.71024098 197.23220554 410.59071222 191.94813487 409.47119141 186.6640625 C409.1525733 185.16028974 409.1525733 185.16028974 408.82751846 183.62613773 C407.85756355 179.04817413 406.887752 174.4701803 405.918396 169.89208984 C404.15679846 161.57291698 402.39206769 153.25443421 400.61978149 144.93753052 C400.12978887 142.63485633 399.64128302 140.33186518 399.15438843 138.02853394 C398.5000061 134.93355273 397.84054846 131.83969701 397.1796875 128.74609375 C396.99939499 127.88725586 396.81910248 127.02841797 396.63334656 126.14355469 C395.72719853 121.92999666 394.72990083 117.74137063 393.61376953 113.57836914 C393.40140656 112.7729921 393.18904358 111.96761505 392.97024536 111.13783264 C391.43727746 107.76010062 389.07873934 106.40817164 385.6875 105.125 C381.73374945 104.94110463 379.43187809 106.06665609 376 108 C374.78530678 110.62396886 374.18145239 112.46692881 373.64648438 115.234375 C373.47993347 115.96644669 373.31338257 116.69851837 373.14178467 117.45277405 C372.59701865 119.87981798 372.09559296 122.31375022 371.59375 124.75 C371.21575635 126.47413725 370.83505136 128.19768208 370.45178223 129.9206543 C369.65973988 133.50598191 368.88572922 137.09449802 368.12695312 140.68701172 C367.08427866 145.62261325 366.0019349 150.54859134 364.90625 155.47265625 C362.92282077 164.41609567 360.99315961 173.37068688 359.07320404 182.32793808 C358.48395125 185.07481324 357.89311647 187.82134387 357.30181885 190.56777954 C350.08457374 224.09174807 342.97531741 257.63860773 335.875 291.1875 C335.34858243 293.67471324 334.82216437 296.16192637 334.29574585 298.6491394 C333.50050055 302.40654375 332.70525595 306.16394825 331.91001415 309.92135334 C299.11566929 464.86644769 299.11566929 464.86644769 289.6875 506.0625 C289.27390732 507.87912643 289.27390732 507.87912643 288.85195923 509.73245239 C283.42453735 533.49014117 277.02749804 554.4773907 259 572 C258.236875 572.78375 257.47375 573.5675 256.6875 574.375 C229.71248206 600.72269194 197.55016086 601.18674929 161.9375 601.0625 C159.41341235 601.05747291 156.88932373 601.05291215 154.36523438 601.04882812 C148.24346797 601.03792311 142.12173867 601.02128167 136 601 C131.32077633 581.82335245 126.80036778 562.61567464 122.41988373 543.36845016 C121.75448009 540.44624454 121.08760425 537.52437551 120.42080307 534.60248852 C113.72634754 505.26509836 107.08206245 475.9162843 100.43182373 446.56884766 C95.00526509 422.62230323 89.56881537 398.67835221 84.0625 374.75 C66.89641639 300.13755323 49.99638415 225.46347708 33.0755825 150.79510498 C29.50571274 135.04207882 25.93051694 119.29028098 22.34819508 103.54008293 C19.89878717 92.77053381 17.45280583 82.00020979 15.00927258 71.22932625 C13.55619605 64.82487268 12.10126991 58.42084823 10.6421814 52.01776123 C9.28616246 46.06683275 7.93474844 40.11487745 6.58686256 34.16210175 C6.09272738 31.98365011 5.59689206 29.8055833 5.09921837 27.62793732 C4.41881729 24.64962429 3.74456236 21.66998265 3.07177734 18.68994141 C2.8746046 17.8336231 2.67743185 16.9773048 2.47428417 16.09503746 C1.27341243 10.73769508 0.52011625 5.46681119 0 0 Z " fill="#FEFEFE" transform="translate(0,1)"/>
<path d="M0 0 C11.49273517 -0.04655237 22.98544751 -0.08198477 34.47825813 -0.10362434 C39.81610596 -0.11401563 45.15388879 -0.12808881 50.49169922 -0.15087891 C55.65291855 -0.17277454 60.81407575 -0.18460353 65.97533798 -0.18975449 C67.93428397 -0.19342046 69.89322696 -0.20057821 71.85214615 -0.21146011 C92.31062254 -0.32048133 111.18518624 0.99100828 128 14 C128.56460937 14.4021875 129.12921875 14.804375 129.7109375 15.21875 C148.67922966 29.82344443 161.7561575 56.48226557 175 76 C175.73911621 77.08877441 176.47823242 78.17754883 177.23974609 79.29931641 C180.82843694 84.58573863 184.41609516 89.87286073 188.00291443 95.16055298 C199.29229813 111.80322841 210.58487027 128.44319875 222 145 C223.75085924 147.54107594 225.50068654 150.08285972 227.25 152.625 C227.6939209 153.26953125 228.1378418 153.9140625 228.59521484 154.578125 C231.29219868 158.49894227 233.97239053 162.43064843 236.640625 166.37109375 C237.92675178 168.26845395 239.21321373 170.165587 240.5 172.0625 C241.13333252 172.99626465 241.76666504 173.9300293 242.41918945 174.89208984 C246.74880152 181.24471329 251.19805027 187.48983277 255.8515625 193.60961914 C259 197.79401367 259 197.79401367 259 200 C259.66 200 260.32 200 261 200 C261.33 200.66 261.66 201.32 262 202 C264.24224658 202.58963678 264.24224658 202.58963678 267 202 C271.933405 197.49101164 275.55951167 191.45509741 279.25 185.9375 C282.99832461 180.36246023 286.81437109 174.8486582 290.7421875 169.3984375 C295.83145427 162.31983465 300.66634771 155.0843049 305.47155762 147.81097412 C312.22786864 137.58835879 319.00790323 127.39620239 326.14135742 117.43139648 C329.68457024 112.47817599 333.07941175 107.43847319 336.43798828 102.35864258 C338.95271705 98.55841822 341.51452077 94.79810071 344.125 91.0625 C347.71884162 85.90667068 351.20598363 80.68724961 354.67480469 75.4465332 C361.73789777 64.77960074 368.98657532 54.30236732 376.55664062 43.99023438 C377.94361205 42.0777528 379.29802844 40.14694483 380.640625 38.203125 C391.82866186 22.03320428 405.02382631 6.82223335 425 2 C437.34804688 -0.12666212 449.53712347 -0.26592538 462.03125 -0.1953125 C464.0037827 -0.19157199 465.97631729 -0.18872994 467.94885254 -0.18673706 C473.08450656 -0.17918218 478.22004342 -0.15960592 483.35565186 -0.1373291 C488.61859554 -0.11669291 493.88155857 -0.10769774 499.14453125 -0.09765625 C509.42973835 -0.0763505 519.71485935 -0.04231581 530 0 C529.10337279 4.29913765 526.89493938 7.43166956 524.4375 11 C523.51813106 12.35540221 522.59886131 13.71087171 521.6796875 15.06640625 C521.22303711 15.73559082 520.76638672 16.40477539 520.29589844 17.09423828 C518.52842531 19.69350265 516.79608307 22.31554552 515.0625 24.9375 C512.50294093 28.779056 509.90897802 32.59414461 507.2850647 36.39179993 C501.60633099 44.61181828 496.03564929 52.89926223 490.51150513 61.22372437 C482.61501287 73.11982219 474.66063744 84.9711273 466.56152344 96.73046875 C457.44407137 109.98184999 448.42551223 123.29654326 439.54174805 136.70581055 C436.00460297 142.03557324 432.40635513 147.31244051 428.72412109 152.54296875 C425.79923586 156.71119942 422.93067007 160.9176247 420.0625 165.125 C419.42570312 166.05860352 418.78890625 166.99220703 418.1328125 167.95410156 C412.5444448 176.16508042 407.0287504 184.42363414 401.54321289 192.70361328 C398.58812406 197.15631926 395.60880125 201.58397701 392.53125 205.953125 C389.30588188 210.53261386 386.19561187 215.18195084 383.09814453 219.84863281 C379.41416152 225.38189471 375.67296108 230.87643555 371.9375 236.375 C371.09835765 237.61122569 370.25924687 238.8474728 369.42016602 240.08374023 C365.64218772 245.64849186 361.85971014 251.21006415 358.0625 256.76171875 C348.25774208 271.09716688 338.60884523 285.53282442 329 300 C331.62023755 305.45662773 334.47541227 310.48899278 337.8671875 315.49609375 C338.33466904 316.19450882 338.80215057 316.89292389 339.28379822 317.61250305 C340.80988536 319.89042972 342.34239854 322.16395231 343.875 324.4375 C344.94668025 326.03451371 346.0178809 327.63184936 347.08862305 329.22949219 C349.29568333 332.52191204 351.50487216 335.81288912 353.71533203 339.10302734 C356.85224502 343.77552446 359.97384771 348.45806628 363.08984375 353.14453125 C363.57555847 353.87478012 364.06127319 354.60502899 364.56170654 355.35740662 C366.42064527 358.15245293 368.27944409 360.94759105 370.13690186 363.74362183 C375.32520313 371.55086056 380.56974557 379.31512167 385.89065552 387.03265381 C390.69247559 393.99730995 395.44464681 400.99510027 400.1875 408 C400.85891022 408.9909819 400.85891022 408.9909819 401.54388428 410.00198364 C408.27964484 419.94551141 414.96198648 429.92291511 421.61083984 439.92480469 C425.54896639 445.84257275 429.52966816 451.72664165 433.57324219 457.57275391 C438.21572514 464.29088041 442.79377424 471.05254822 447.375 477.8125 C452.91865226 485.99221603 458.47228818 494.16448659 464.0625 502.3125 C467.61849892 507.49805888 471.14922248 512.69782854 474.625 517.9375 C485.18169658 533.85046228 495.99273369 549.59729324 506.75 565.375 C507.34272705 566.24495605 507.9354541 567.11491211 508.54614258 568.01123047 C511.76259669 572.72951549 514.9892764 577.44051119 518.2265625 582.14453125 C518.92040039 583.15531738 519.61423828 584.16610352 520.32910156 585.20751953 C521.66403565 587.15193546 523.00179829 589.09441336 524.34277344 591.03466797 C524.93864258 591.90365723 525.53451172 592.77264648 526.1484375 593.66796875 C526.94000244 594.81688599 526.94000244 594.81688599 527.74755859 595.98901367 C529 598 529 598 530 601 C517.0904366 601.13960962 504.18105563 601.24592924 491.27088833 601.31087303 C485.27480152 601.34205804 479.27923483 601.38429521 473.28344727 601.45263672 C467.48676066 601.51828813 461.69057131 601.55380229 455.89354134 601.56926346 C453.69252773 601.58026807 451.49153838 601.60175558 449.29073906 601.63438034 C436.12712368 601.8215876 425.81010936 601.14879057 414 595 C412.96350815 594.49197845 411.9270163 593.98395691 410.8591156 593.46054077 C392.26306171 584.16437251 382.22576712 567.67037675 370.99804688 550.96679688 C367.72713827 546.10999318 364.42556236 541.27417839 361.125 536.4375 C360.1820105 535.05365112 360.1820105 535.05365112 359.2199707 533.6418457 C355.85436808 528.70524173 352.47187849 523.78146407 349.0625 518.875 C346.48137957 515.1580961 343.93208443 511.42398811 341.42578125 507.65625 C340.38200317 506.08786377 340.38200317 506.08786377 339.31713867 504.48779297 C337.25052545 501.37814468 335.18598816 498.2671198 333.12153625 495.15603638 C331.26433097 492.35812387 329.40548867 489.56130095 327.54638672 486.76464844 C326.60154216 485.34235065 325.65752655 483.91950182 324.71435547 482.49609375 C319.44949559 474.55217179 314.11206292 466.68348101 308.53829956 458.95269775 C304.63010178 453.52044846 300.92848276 447.96414869 297.25 442.375 C292.06123926 434.5457462 286.81808611 426.76139526 281.4375 419.0625 C280.89061523 418.2772998 280.34373047 417.49209961 279.78027344 416.68310547 C277.0109839 412.74089054 274.18432651 408.84190715 271.29296875 404.98828125 C270.73762451 404.24489502 270.18228027 403.50150879 269.61010742 402.7355957 C268.0121129 400.70987347 268.0121129 400.70987347 264.875 400.125 C258.79117395 401.97659923 255.51282965 407.86314691 252.125 412.9375 C251.16016646 414.36198608 250.19532209 415.78646483 249.23046875 417.2109375 C248.71403809 417.97760742 248.19760742 418.74427734 247.66552734 419.53417969 C245.88688605 422.16746569 244.09532456 424.79158954 242.30078125 427.4140625 C236.33750219 436.13014877 230.40263244 444.86253094 224.56396484 453.66259766 C219.34335611 461.51624671 213.96367501 469.26113115 208.60449219 477.02050781 C203.25820359 484.76457125 197.95740422 492.53321311 192.75610352 500.37548828 C189.84125437 504.7617291 186.87140471 509.10665957 183.875 513.4375 C179.18646014 520.21548863 174.61840087 527.06981774 170.0625 533.9375 C163.97693171 543.09950205 157.76678209 552.15160918 151.35839844 561.09033203 C149.99564535 563.00612187 148.65549538 564.93601056 147.3203125 566.87109375 C136.12877731 583.02284865 121.52665672 595.94149343 101.5847168 599.63204956 C90.42437481 601.0946939 79.43186614 601.25961732 68.1875 601.1953125 C66.23738756 601.19157184 64.28727321 601.18872986 62.3371582 601.18673706 C57.26068728 601.17918337 52.18433495 601.15960821 47.10791016 601.1373291 C41.90528975 601.11669027 36.70264975 601.10769719 31.5 601.09765625 C21.33328188 601.07635261 11.16665089 601.04231946 1 601 C1.72764622 596.77077605 2.85266319 594.47147141 5.5 591.0625 C8.62127066 586.91558979 11.54349502 582.70021269 14.3125 578.3125 C17.54246157 573.21643181 20.87698621 568.20982822 24.3125 563.25 C28.26848057 557.5387398 32.15893015 551.7891871 36 546 C39.78450216 540.29860887 43.60904591 534.62928682 47.5 529 C51.21905082 523.61716329 54.88223464 518.20141029 58.5 512.75 C64.09767609 504.31619289 69.78291157 495.94303055 75.47546387 487.57318115 C81.92809105 478.08302259 88.32373939 468.55736432 94.66113281 458.98974609 C98.10402868 453.80142927 101.61188069 448.66898011 105.19580078 443.57714844 C108.53136564 438.81257163 111.79400184 433.99821936 115.0625 429.1875 C115.43127258 428.64509674 115.80004517 428.10269348 116.17999268 427.54385376 C121.11544619 420.28297875 126.01658079 413.00020915 130.875 405.6875 C136.14197397 397.76053759 141.46338471 389.87167789 146.8125 382 C147.6035381 380.83554587 148.39455342 379.67107626 149.18554688 378.5065918 C149.58826813 377.91371872 149.99098938 377.32084564 150.40591431 376.71000671 C150.81723602 376.1044545 151.22855774 375.49890228 151.65234375 374.875 C152.07212494 374.25700027 152.49190613 373.63900055 152.92440796 373.00227356 C171.50683878 345.73958807 171.50683878 345.73958807 189.75 318.25 C190.23194824 317.51394531 190.71389648 316.77789062 191.21044922 316.01953125 C192.49876895 314.02750746 193.75351249 312.01840395 195 310 C195.49564453 309.23107422 195.99128906 308.46214844 196.50195312 307.66992188 C196.98083984 306.88681641 197.45972656 306.10371094 197.953125 305.296875 C198.39301758 304.59401367 198.83291016 303.89115234 199.28613281 303.16699219 C200.22318954 300.97969093 200.22318954 300.97969093 199.38549805 298.62426758 C197.74179725 295.51093896 195.87518166 292.6082068 193.87890625 289.71484375 C193.46761475 289.11048996 193.05632324 288.50613617 192.63256836 287.88346863 C191.28023878 285.89846498 189.92132581 283.91806095 188.5625 281.9375 C187.60814488 280.5385881 186.65429466 279.13933164 185.70092773 277.73974609 C183.74698115 274.87257195 181.79063682 272.00705993 179.83203125 269.14306641 C176.11337586 263.70478432 172.40692114 258.25824598 168.70562744 252.80813599 C167.94071293 251.68187911 167.17553354 250.55580207 166.41009521 249.42990112 C159.29116677 238.95629698 152.27735671 228.41408251 145.26968384 217.86584473 C139.14841492 208.65724958 132.94554788 199.5193226 126.56347656 190.48852539 C122.87371503 185.26622308 119.28445318 179.98905388 115.75927734 174.65454102 C112.35130583 169.5035239 108.86992981 164.40484093 105.375 159.3125 C101.20859333 153.24081591 97.08456065 147.14540871 93.015625 141.0078125 C90.58375639 137.37886128 88.10631031 133.78274568 85.625 130.1875 C82.07990831 125.04991517 78.57450982 119.88974129 75.125 114.6875 C71.42623359 109.10992504 67.6655511 103.57806822 63.875 98.0625 C58.85241423 90.75044847 53.90997162 83.3880928 49 76 C44.31289777 68.9497041 39.60541054 61.91635061 34.8125 54.9375 C29.36123802 46.99880309 23.93776961 39.04157714 18.53134155 31.07229614 C17.60780812 29.71143557 16.68369313 28.35096944 15.75894165 26.99093628 C11.41841082 20.60653298 7.09314058 14.21097498 2.8671875 7.75 C2.3088623 6.89921875 1.75053711 6.0484375 1.17529297 5.171875 C0 3 0 3 0 0 Z " fill="#FEFEFE" transform="translate(1021,1)"/>
<path d="M0 0 C2.30142354 0.01507376 4.60285662 0.0287574 6.90429688 0.04101562 C12.49890888 0.07380816 18.09315903 0.12379388 23.6875 0.1875 C23.7046289 50.81512374 23.72054814 101.44274769 23.72984314 152.07037354 C23.7299812 152.82041224 23.73011925 153.57045095 23.73026149 154.3432181 C23.73325483 170.64598728 23.73602495 186.94875649 23.73856533 203.25152574 C23.7398126 211.24711092 23.74110916 219.24269609 23.74243164 227.23828125 C23.7425624 228.03391207 23.74269316 228.82954288 23.74282788 229.64928373 C23.74708455 255.40945554 23.75459237 281.16962515 23.76379722 306.92979563 C23.773244 333.41528955 23.77938873 359.90078224 23.78141499 386.38627781 C23.78170312 390.1324397 23.78202875 393.8786016 23.78237724 397.62476349 C23.78247838 398.73064433 23.78247838 398.73064433 23.78258156 399.85886621 C23.78376045 411.69727286 23.78839086 423.53567574 23.79433203 435.37408086 C23.80023944 447.293435 23.80246295 459.21278541 23.80100138 471.13214096 C23.80036243 477.58307181 23.80132522 484.03399163 23.80670547 490.4849205 C23.81160452 496.40239179 23.81179633 502.31984471 23.80839889 508.23731688 C23.80797956 510.36686491 23.80922011 512.49641412 23.81238318 514.62595984 C23.82658777 524.78836229 23.75273341 534.94179513 23.34404659 545.09704971 C23.3063148 546.29528302 23.3063148 546.29528302 23.26782075 547.51772307 C22.69327091 559.58389721 17.11519207 569.86048941 9.6875 579.1875 C8.72650391 580.44046875 8.72650391 580.44046875 7.74609375 581.71875 C-1.81139312 593.18047999 -15.80701163 599.24145264 -30.3125 601.1875 C-34.2482232 601.42493794 -38.16377236 601.42289801 -42.10546875 601.3828125 C-43.17751053 601.3799826 -44.24955231 601.37715271 -45.3540802 601.37423706 C-48.7361731 601.36315375 -52.11798884 601.33807195 -55.5 601.3125 C-57.81054302 601.30245487 -60.12109024 601.29333172 -62.43164062 601.28515625 C-68.05868632 601.26325341 -73.68557335 601.22989627 -79.3125 601.1875 C-79.44132214 565.89325433 -79.56882964 530.59900415 -79.69468227 495.30474777 C-79.70969447 491.09501085 -79.72471706 486.88527397 -79.73974609 482.67553711 C-79.74423202 481.41892557 -79.74423202 481.41892557 -79.74880856 480.13692794 C-79.79664124 466.74474638 -79.84530683 453.35256799 -79.89430541 439.96039065 C-79.9449297 426.11854838 -79.99460077 412.27670291 -80.04346704 398.43485433 C-80.07079044 390.70238306 -80.0984961 382.96991363 -80.12730408 375.23744774 C-80.33233263 320.09094748 -80.48174585 264.94320487 -80.14350247 209.79692674 C-80.12296885 206.41729293 -80.10360606 203.03765265 -80.08413738 199.65801257 C-80.03803244 191.66839936 -79.98982363 183.67880096 -79.94018555 175.68920898 C-79.89565615 168.51474411 -79.85415835 161.34026865 -79.81518555 154.16577148 C-79.71275797 135.43743283 -79.59085447 116.709654 -79.41353798 97.98185921 C-79.34259291 90.28615287 -79.30369298 82.59249044 -79.32915974 74.896348 C-79.33695315 71.14467284 -79.31611063 67.39361036 -79.28623772 63.64206505 C-79.28049834 62.06566917 -79.28788394 60.48914506 -79.3112812 58.91291237 C-79.53750109 43.31570097 -72.5586706 29.79982668 -62.3125 18.1875 C-44.44219148 0.56712586 -23.54618407 -0.26908958 0 0 Z " fill="#FEFEFE" transform="translate(922.3125,0.8125)"/>
</svg>
